<svg xmlns="http://www.w3.org/2000/svg" viewBox="0 0 1280 320" role="img" aria-label="Roost — AVES/ALIGHT"><rect x="0" y="0" width="1280" height="320" fill="#EFE6D6"></rect>

  <!-- Authoritative roost-primary-crow lockup, scaled 1.6x and anchored left with margin -->
  <!-- Light-mode color inversion: ink type/crow, wick perch (unchanged), moss slash (unchanged) -->
  <g transform="translate(374 45) scale(1.6)">
    <text x="0" y="78" font-family="'JetBrains Mono', ui-monospace, SFMono-Regular, Menlo, monospace" font-weight="500" font-size="100" letter-spacing="6" fill="#04060B">ROOST</text>
    <rect x="8.9" y="82" width="45.9" height="9" fill="#E8A24A"></rect>

    <g id="crow" transform="translate(17.4687 98.8622) scale(0.337349)">
      <g transform="translate(0.000000,120.000000) scale(0.100000,-0.100000)"
fill="#04060B" stroke="none">
<path d="M440 1050 c0 -26 33 -71 75 -101 25 -18 45 -34 45 -35 0 -5 -73 23
-142 54 -38 17 -68 28 -68 24 0 -17 49 -64 85 -82 47 -23 33 -24 -52 -7 -58
13 -61 12 -52 -5 12 -23 40 -37 92 -48 40 -7 38 -8 -26 -9 -76 -1 -81 -14 -14
-32 35 -10 39 -13 22 -19 -18 -8 -17 -10 13 -21 18 -8 30 -19 28 -25 -5 -13
15 -24 45 -24 12 0 16 -5 13 -15 -5 -11 3 -17 24 -21 21 -4 29 -11 25 -20 -9
-24 24 -26 71 -5 57 25 60 19 5 -9 l-40 -21 30 -31 c16 -16 34 -27 40 -24 7 4
9 1 5 -8 -9 -23 50 -50 77 -35 15 8 19 8 15 0 -16 -25 32 -9 60 20 16 17 38
35 49 41 11 6 -5 -15 -35 -47 -72 -74 -157 -121 -262 -144 -72 -15 -80 -19
-62 -29 11 -6 32 -9 45 -6 13 3 4 -3 -20 -13 -44 -18 -54 -40 -16 -36 18 3 17
1 -5 -16 -31 -25 -19 -39 22 -23 29 11 29 10 14 -7 -33 -37 15 -39 59 -3 l20
17 -20 -24 -20 -24 35 7 c19 3 48 7 64 9 15 2 37 14 47 28 12 15 17 17 13 7
-17 -48 36 -6 66 52 16 32 37 50 56 50 2 0 4 -13 4 -28 0 -33 12 -49 63 -87
42 -31 45 -40 17 -48 -11 -3 -20 -13 -20 -24 0 -11 3 -14 8 -6 17 27 46 19 59
-17 11 -32 13 -33 19 -13 l6 22 19 -22 c14 -17 18 -18 19 -7 0 9 -5 21 -12 28
-7 7 -8 12 -2 12 6 0 15 -5 22 -12 9 -9 12 -9 12 0 0 7 -15 21 -32 31 -117 69
-139 102 -113 171 l12 35 8 -40 c10 -54 18 -61 78 -76 50 -12 51 -12 29 -27
-12 -8 -22 -22 -22 -31 0 -11 3 -12 8 -4 17 27 58 25 72 -4 12 -24 14 -26 18
-9 4 18 5 18 18 -5 9 -17 13 -19 14 -7 0 9 3 23 6 31 5 14 -77 61 -145 82 -24
7 -25 24 -5 93 5 18 3 21 -11 16 -10 -4 14 23 53 59 39 36 83 69 99 72 15 4
34 9 41 11 7 2 26 -3 43 -11 69 -36 80 -37 73 -7 -8 30 -33 66 -81 118 -27 30
-37 34 -81 34 -74 0 -142 -11 -136 -22 18 -29 -39 18 -83 70 -55 63 -175 146
-148 102 27 -44 -92 29 -154 95 -34 36 -51 48 -51 37 0 -18 26 -62 44 -74 8
-5 7 -8 0 -8 -14 0 -123 79 -143 104 -20 24 -51 40 -51 26z"/>
<path d="M1150 986 c0 -25 4 -56 10 -71 14 -37 -3 -23 -37 30 -15 25 -31 45
-35 45 -13 0 -9 -43 7 -74 21 -40 20 -40 -20 -10 -42 31 -55 26 -30 -12 l17
-27 -31 6 c-38 8 -40 -5 -6 -32 l26 -20 -28 -3 c-21 -2 -28 -8 -26 -23 1 -11
-5 -24 -13 -28 -14 -8 -13 -11 3 -29 16 -18 25 -19 98 -13 119 11 197 82 194
177 l-1 33 -13 -30 -14 -30 -2 45 c0 25 -4 56 -9 70 l-7 25 -7 -30 c-16 -68
-21 -69 -40 -11 -23 67 -36 72 -36 12z"/>
</g>
    </g>

    <g transform="translate(181.8 130)" text-anchor="middle">
      <text font-family="'JetBrains Mono', ui-monospace, SFMono-Regular, Menlo, monospace" font-weight="500" font-size="28" letter-spacing="3" fill="#04060B">
        <tspan>AVES</tspan><tspan fill="none" font-weight="700" font-size="34" dy="2.02" dx="4.5">/</tspan><tspan dy="-2.02" dx="4.5">ALIGHT</tspan>
      </text>
    </g>
    <polygon points="162.65,103.72 166.65,103.72 161.35,135.22 157.35,135.22" fill="#3F8F77"></polygon>
  </g>
</svg>
